<svg width="21" height="21" viewBox="0 0 21 21" fill="none" xmlns="http://www.w3.org/2000/svg">
<path fill-rule="evenodd" clip-rule="evenodd" d="M6.7712 0.614177C7.83786 0.566107 8.1787 0.554504 10.8945 0.554504C13.6104 0.554504 13.9512 0.566107 15.0179 0.614177C16.6429 0.68794 18.0704 1.0841 19.2162 2.22369C20.362 3.36328 20.7604 4.783 20.8345 6.39914C20.8829 7.45999 20.8945 7.79897 20.8945 10.5C20.8945 13.201 20.8829 13.54 20.8345 14.6009C20.7604 16.217 20.362 17.6367 19.2162 18.7763C18.0704 19.9159 16.6429 20.3121 15.0179 20.3858C13.9512 20.4339 13.6104 20.4455 10.8945 20.4455C8.1787 20.4455 7.83786 20.4339 6.7712 20.3858C5.1462 20.3121 3.7187 19.9159 2.57286 18.7763C1.42703 17.6367 1.0287 16.217 0.954531 14.6009C0.906198 13.54 0.894531 13.201 0.894531 10.5C0.894531 7.79897 0.906198 7.45999 0.954531 6.39914C1.0287 4.783 1.42703 3.36328 2.57286 2.22369C3.7187 1.0841 5.1462 0.68794 6.7712 0.614177ZM14.9345 2.40451C13.8803 2.35644 13.5636 2.3465 10.8936 2.3465C8.22365 2.3465 7.90698 2.35644 6.85281 2.40451C5.71448 2.4559 4.65865 2.68299 3.84615 3.49106C3.03365 4.29913 2.80531 5.34921 2.75365 6.48133C2.70531 7.52976 2.69531 7.8447 2.69531 10.5001C2.69531 13.1556 2.70531 13.4705 2.75365 14.5189C2.80531 15.6511 3.03365 16.7012 3.84615 17.5092C4.65865 18.3173 5.71448 18.5444 6.85281 18.5958C7.90698 18.6438 8.22365 18.6538 10.8936 18.6538C13.5636 18.6538 13.8803 18.6438 14.9345 18.5958C16.0728 18.5444 17.1286 18.3173 17.9411 17.5092C18.7536 16.7012 18.982 15.6511 19.0336 14.5189C19.082 13.4705 19.092 13.1556 19.092 10.5001C19.092 7.8447 19.082 7.52976 19.0336 6.48133C18.982 5.34921 18.7536 4.29913 17.9411 3.49106C17.1286 2.68299 16.0728 2.4559 14.9345 2.40451ZM5.75781 10.4994C5.75781 7.67903 8.05698 5.3924 10.8928 5.3924C13.7286 5.3924 16.0278 7.67903 16.0278 10.4994C16.0278 13.3198 13.7286 15.6064 10.8928 15.6064C8.05698 15.6064 5.75781 13.3198 5.75781 10.4994ZM7.55859 10.4995C7.55859 12.3303 9.05109 13.8147 10.8919 13.8147C12.7328 13.8147 14.2253 12.3303 14.2253 10.4995C14.2253 8.66875 12.7328 7.18439 10.8919 7.18439C9.05109 7.18439 7.55859 8.66875 7.55859 10.4995ZM17.4312 5.19132C17.4312 5.85045 16.894 6.38478 16.2312 6.38478C15.5685 6.38478 15.0312 5.85045 15.0312 5.19132C15.0312 4.53219 15.5685 3.99786 16.2312 3.99786C16.894 3.99786 17.4312 4.53219 17.4312 5.19132Z" fill="white"/>
</svg>
