<svg width="20" height="16" viewBox="0 0 20 16" fill="none" xmlns="http://www.w3.org/2000/svg">
<path d="M17.2711 3.91238L17.2831 4.41898C17.2831 9.59211 13.326 15.552 6.08905 15.552C3.86784 15.552 1.80039 14.9044 0.0585938 13.7938C0.36624 13.8295 0.679801 13.8494 0.997435 13.8494C2.84115 13.8494 4.53701 13.2236 5.88331 12.1747C4.16149 12.1429 2.70927 11.0105 2.20792 9.45703C2.44959 9.50271 2.6933 9.5246 2.94897 9.5246C3.30853 9.5246 3.65606 9.47892 3.98566 9.38952C2.1859 9.02794 0.829616 7.44862 0.829616 5.5534V5.50373C1.36093 5.79774 1.96617 5.97255 2.61136 5.99444C1.55668 5.29317 0.86155 4.09523 0.86155 2.73837C0.86155 2.02121 1.05532 1.34974 1.39287 0.771651C3.33245 3.13968 6.23282 4.69718 9.50273 4.86009C9.43479 4.57399 9.40088 4.27403 9.40088 3.96813C9.40088 1.80869 11.1627 0.0564575 13.336 0.0564575C14.4665 0.0564575 15.4893 0.531227 16.2083 1.2921C17.1032 1.11526 17.9462 0.789491 18.7072 0.342496C18.4136 1.25635 17.7904 2.02317 16.9774 2.50788C17.7704 2.41449 18.5315 2.20191 19.2366 1.89202C18.7093 2.67472 18.0401 3.3641 17.2711 3.91238Z" fill="white"/>
</svg>
